<?xml version="1.0" standalone="no"?><!DOCTYPE svg PUBLIC "-//W3C//DTD SVG 1.1//EN" "http://www.w3.org/Graphics/SVG/1.1/DTD/svg11.dtd"><svg t="1621408581078" class="icon" viewBox="0 0 1024 1024" version="1.1" xmlns="http://www.w3.org/2000/svg" p-id="1076" xmlns:xlink="http://www.w3.org/1999/xlink" width="200" height="200"><defs><style type="text/css"></style></defs><path d="M184.008 522.669c-19.475 0-40.936-13.251-51.994-21.148-5.999-4.285-8.179-12.296-5.184-19.05 13.501-30.44 40.508-66.725 92.501-66.725 32.69 0 59.35 14.574 60.47 15.194l9.09 5.04-7.65 7.04c-0.498 0.458-50.09 46.116-72.663 69.67-6.345 6.62-14.613 9.979-24.568 9.979h-0.002z" fill="#FFD100" p-id="1077"></path><path d="M209.81 485.38S145.664 465 130.664 492c0 0 13.69 27.338 53.344 30.67 0 0 27.948-25.909 25.802-37.29" fill="#FBA300" p-id="1078"></path><path d="M231.459 479.503c-6.428-1.767-22.824-5.939-41.097-7.958-22.821-2.52-40.37-0.777-52.453 5.176 21.975-42.27 53.827-53.475 81.422-53.475 31.125 0 56.833 14.254 56.833 14.254s-22.81 20.985-44.705 42.003zM203.164 507.5c-5.309 5.54-12 7.67-19.156 7.67-17.208 0-37.091-12.322-46.833-19.184 11.468-15.25 52.324-11.368 81.705-4.289-5.872 5.758-11.294 11.188-15.716 15.803z m-67.115-12.336l0.579 0.434c-0.084-0.06-0.173-0.123-0.256-0.18-0.112-0.082-0.216-0.169-0.323-0.254z m147.388-70.783c-1.188-0.659-29.499-16.135-64.106-16.135-30.923 0-73.262 12.35-99.356 71.183-4.433 9.993-1.203 21.851 7.679 28.194 11.791 8.421 34.79 22.546 56.354 22.546 11.911 0 22.28-4.25 29.985-12.29 22.408-23.383 71.83-68.884 72.326-69.34l15.3-14.077-18.182-10.08z" fill="#342D1F" p-id="1079"></path><path d="M406.5 890.529c-66.745 0-129.504-25.411-176.716-71.552C182.526 772.79 156.5 711.37 156.5 646.029c0-103.61 67.09-196.281 166.965-230.67 65.266-26.525 209.281-46.664 268.535-51.104 11.554-1.164 23.142-1.755 34.443-1.755 34.756 0 67.844 5.47 98.345 16.26 29.732 10.52 56.344 25.84 79.097 45.536 45.895 39.725 73.53 95.887 77.814 158.138l0.024 0.358-0.01 0.357c-4.952 185.182-111.026 216.234-223.328 249.109-9.47 2.774-19.265 5.64-28.96 8.589-45.184 14.49-71.066 22.539-118.355 32.41-39.375 14.44-68.19 17.272-104.57 17.272" fill="#FFD100" p-id="1080"></path><path d="M875 621.029c-27.012 154.324-238 188-238 188-20.117 1.677-27.584-7.885-29.475-11.023 31.05-51.737 18.975-103.477 18.975-103.477-31 158-169.5 169.5-169.5 169.5-106 8-181-30-181-30l-37-7c50.649 51.205 117.087 63.682 166.057 64.684 7.428 18.263 25.52 31.025 45.842 31.025 2.54 0 5.108-0.2 7.63-0.596l23.836-3.732c12.998-2.035 24.45-9.045 32.249-19.74 5.856-8.03 9.082-17.39 9.474-27.056 62.662-11.836 113.536-25.955 154.23-40.086a49.44 49.44 0 0 0 39.116 19.107 49.07 49.07 0 0 0 15.366-2.47l22.916-7.544c24.678-8.125 38.645-33.945 32.515-58.766C809.016 769.314 818 761.029 818 761.029c60.046-50.55 57-140 57-140" fill="#FBA300" p-id="1081"></path><path d="M626.444 355c35.61 0 69.539 5.615 100.846 16.691 30.618 10.832 58.041 26.623 81.504 46.934 22.199 19.214 40.247 41.953 53.717 67.636 7.585-4.281 20.705-13.993 22.717-26.175 1.584-9.59-3.742-20.308-15.832-31.855-3.994-3.815-4.139-10.144-0.324-14.138 3.814-3.993 10.144-4.139 14.138-0.324 17.2 16.428 24.511 33.146 21.732 49.689-1.952 11.624-9.103 22.719-20.676 32.086-5.157 4.174-10.139 7.15-13.236 8.834 10.167 24.248 16.274 50.258 18.152 77.541l0.049 0.715-0.02 0.716c-1.209 45.227-8.205 82.637-21.387 114.367-12.139 29.217-29.284 53.009-52.419 72.735-6.065 5.171-12.395 9.918-18.946 14.327 4.299 27.071-11.542 54.114-38.401 62.957l-22.916 7.545a56.55 56.55 0 0 1-17.709 2.845c-18.079 0-34.585-8.43-45.154-22.128-3.912 1.153-104.493 32.3-141.079 40.567-3.048 24.57-22.028 45.229-47.676 49.247 0 0-29.698 4.418-32.625 4.418-13.411 0-26.478-4.81-36.794-13.541a56.893 56.893 0 0 1-14.507-18.753c-32.277-0.823-63.604-7.427-93.22-19.669-30.655-12.673-58.188-30.815-81.835-53.927-23.671-23.133-42.261-50.084-55.252-80.102C155.827 713.127 149 680.085 149 646.029c0-53.299 16.797-104.244 48.576-147.325 15.276-20.71 33.608-38.986 54.489-54.322a258.543 258.543 0 0 1 68.766-36.048c37.496-15.197 97.152-27.212 140.67-34.625 52.053-8.867 102.666-14.884 129.843-16.927a352.515 352.515 0 0 1 35.1-1.782zM515.291 880.035l-2.156 0.454c-36.073 13.161-64.432 16.848-96.154 17.445 7.765 10.626 20.317 17.313 33.918 17.313 2.136 0 30.306-4.238 30.306-4.238 16.965-2.657 29.999-15.291 34.086-30.974zM626.444 370c-11.034 0-22.306 0.566-33.787 1.726-53.421 3.994-200.759 23.84-266.556 50.658C231.692 454.801 164 542.682 164 646.029c0 72.325 33.15 137.084 85.409 180.555 3.503 1.042 23.2 6.46 49.28 4.418 32.631-2.553 61.575-15.164 86.261-37.523-12.849-5.907-21.069-13.962-21.754-14.647a7.5 7.5 0 1 1 10.594-10.62c0.648 0.641 9.541 9.253 22.717 13.75 0.146-0.159 0.294-0.314 0.44-0.475l1.062 0.964c9.725 3.007 21.596 3.64 34.136-2.63a7.5 7.5 0 0 1 6.709 13.417c-9.37 4.684-18.394 6.496-26.739 6.496-3.782 0-7.42-0.382-10.895-1.027-35.573 35.273-74.726 45.28-102.04 47.301a167.445 167.445 0 0 1-22.645 0.14c37.562 23.355 82.147 36.881 129.965 36.881 35.961 0 63.936-2.946 101.356-16.586 41.174-18.801 119.047-68.03 119.068-171.479 0.001-1.523 2.202-1.726 2.458-0.225 5.145 29.966 7.245 111.125-60.244 156.789 18.186-5.1 35.836-10.716 58.053-17.841C751 796.029 869 778.029 874.217 582.949 865.681 458.927 764.705 370 626.444 370z m155.721 423.671c-28.39 16.307-60.374 27.378-94.019 37.59 7.79 7.526 18.317 11.883 29.287 11.883 4.321 0 8.71-0.675 13.024-2.095l22.916-7.545c17.563-5.783 28.755-22.243 28.792-39.833z" fill="#342D1F" p-id="1082"></path><path d="M643.651 390.454l-170.648 22.66c-5.81 0.772-10.237 5.99-10.437 12.306-0.25 7.886 6.086 14.148 13.341 13.184l170.649-22.66c5.81-0.772 10.237-5.991 10.437-12.306 0.25-7.886-6.086-14.147-13.342-13.184" fill="#FBA300" p-id="1083"></path><path d="M656.674 406.153c-0.102 0.011-0.2 0.008-0.304 0.022l-192.48 25.56c2.198 4.59 6.87 7.552 12.017 6.868l170.65-22.66c5.014-0.666 8.993-4.65 10.117-9.79" fill="#E78900" p-id="1084"></path><path d="M239.216 828.683c-6.988 0-13.74-1.675-20.067-4.98l-43.887-22.913a43.455 43.455 0 0 1-22.953-32.846c-1.649-12.587 2.011-24.723 10.303-34.172 8.333-9.495 20.257-14.942 32.715-14.942 6.433 0 12.718 1.439 18.68 4.276l43.888 20.882c15.041 7.156 24.76 22.543 24.76 39.2v2.034c0 23.965-19.487 43.46-43.439 43.46" fill="#FBA300" p-id="1085"></path><path d="M207.664 813s32 0 46-16c0 0 16-19-1-52 0 0 54 41 15 72 0 0-24 18-60-4" fill="#E78900" p-id="1086"></path><path d="M275.164 785.222c0 20.863-17.125 35.97-35.947 35.97-5.518 0-11.18-1.297-16.6-4.128l-43.888-22.914a35.925 35.925 0 0 1-18.992-27.18c-2.96-22.607 15.082-40.647 35.59-40.648 5.097 0 10.345 1.114 15.462 3.548l43.887 20.882a35.92 35.92 0 0 1 20.488 32.437v2.033z m-14.051-48l-43.887-20.882c-6.087-2.895-12.473-4.545-19.021-4.918a105.266 105.266 0 0 0 4.102-4.744 6.625 6.625 0 0 0-0.965-9.32 6.624 6.624 0 0 0-9.321 0.965c-6.38 7.852-13.877 14.226-19.54 18.498a51.58 51.58 0 0 0-15.5 12.009c-9.734 11.094-14.032 25.33-12.1 40.086a50.954 50.954 0 0 0 26.913 38.515l43.888 22.915c7.408 3.867 15.326 5.829 23.535 5.829 28.083 0 50.93-22.857 50.93-50.953v-2.033c0-19.531-11.397-37.574-29.034-45.966z" fill="#342D1F" p-id="1087"></path><path d="M195.17 786.973a6.471 6.471 0 0 1-6.308-7.943l7-30a6.471 6.471 0 1 1 12.604 2.941l-7 30a6.475 6.475 0 0 1-6.296 5.002M224.198 798.741a6.471 6.471 0 0 1-6.308-7.943l7-30a6.471 6.471 0 1 1 12.604 2.941l-7 30a6.475 6.475 0 0 1-6.296 5.002" fill="#342D1F" p-id="1088"></path><path d="M190.164 679.868c-29.428 0-53.368-27.08-53.368-60.368 0-33.287 23.94-60.368 53.368-60.368s53.368 27.081 53.368 60.368c0 33.287-23.94 60.368-53.368 60.368" fill="#EFE9E2" p-id="1089"></path><path d="M222.664 575s19.204 106.555-70 85c0 0 33.35 38.11 72.675 3.555 0 0 42.325-42.555-2.675-88.555" fill="#DCDBDA" p-id="1090"></path><path d="M190.164 552.263c-16.458 0-31.817 7.243-43.25 20.396-10.954 12.604-16.987 29.24-16.987 46.84 0 17.603 6.033 34.239 16.988 46.843 11.432 13.152 26.79 20.396 43.249 20.396 16.458 0 31.817-7.244 43.249-20.396 10.955-12.604 16.988-29.24 16.988-46.842 0-17.601-6.033-34.237-16.988-46.841-11.432-13.153-26.791-20.396-43.25-20.396m0 13.737c25.682 0 46.5 23.953 46.5 53.5s-20.818 53.5-46.5 53.5c-25.68 0-46.5-23.953-46.5-53.5s20.82-53.5 46.5-53.5" fill="#342D1F" p-id="1091"></path><path d="M224.664 632.5c0 16.845-13.655 30.5-30.5 30.5s-30.5-13.655-30.5-30.5 13.655-30.5 30.5-30.5 30.5 13.655 30.5 30.5" fill="#342D1F" p-id="1092"></path><path d="M340.664 737.868c-33.563 0-60.868-28.65-60.868-63.868 0-35.217 27.305-63.868 60.868-63.868s60.868 28.651 60.868 63.868-27.305 63.868-60.868 63.868" fill="#EFE9E2" p-id="1093"></path><path d="M371.664 622s42 109-69.497 102.036c0 0 44.408 37.056 87.453-8.99 0 0 18.913-63.376-17.956-93.046" fill="#DCDBDA" p-id="1094"></path><path d="M340.664 603.263c-37.351 0-67.737 31.732-67.737 70.737 0 39.005 30.386 70.738 67.737 70.738 37.35 0 67.737-31.733 67.737-70.738 0-39.005-30.387-70.737-67.737-70.737m0 13.737c29.823 0 54 25.52 54 57s-24.177 57-54 57c-29.824 0-54-25.52-54-57s24.176-57 54-57" fill="#342D1F" p-id="1095"></path><path d="M359.585 682.757c-1.247 17.906-16.773 31.41-34.679 30.165-17.905-1.247-31.411-16.773-30.164-34.68 1.247-17.905 16.773-31.41 34.679-30.164 17.906 1.247 31.411 16.774 30.164 34.679" fill="#342D1F" p-id="1096"></path><path d="M403.957 611.251c-34.198 0-49.674-23.105-50.343-24.132a6.625 6.625 0 0 1 11.08-7.266c0.594 0.88 13.658 19.752 43.08 18.033a6.625 6.625 0 1 1 0.778 13.228 77.608 77.608 0 0 1-4.595 0.137M244.635 559.428c-18.852 0-29.483-13.616-32.624-21.467a6.628 6.628 0 0 1 3.691-8.613A6.628 6.628 0 0 1 224.3 533c0.666 1.59 6.893 15.165 24.007 12.93a6.627 6.627 0 0 1 1.715 13.141c-1.865 0.243-3.66 0.357-5.386 0.357" fill="#342D1F" p-id="1097"></path><path d="M512.3 611.19c-2.934 0-4.734-0.207-5.065-0.248l-0.22-0.03c-25.647-3.97-45.064-14.046-57.711-29.95-9.317-11.717-14.692-26.163-15.975-42.936-1.355-17.723 10.832-33.623 28.347-36.986 12.043-2.313 23.83-3.485 35.032-3.485 43.85 0 70.62 17.773 82.678 28.367a24.131 24.131 0 0 1 6.948 25.942c-7.872 23.226-20.845 40.038-38.56 49.97-14.522 8.14-28.456 9.355-35.471 9.355h-0.002z" fill="#FFD100" p-id="1098"></path><path d="M444.38 573.65s58.005-60.773 141.394-35.962L580.664 561s-38 85-117 29c0 0-26.07-13.2-19.285-16.35" fill="#FBA300" p-id="1099"></path><path d="M579.23 549.457c-16.915 49.912-54.437 54.232-66.93 54.232-2.616 0-4.136-0.189-4.136-0.189-30.627-4.74-47.691-17.988-57.016-32.91 5.08-3.761 18.592-13.051 37.552-20.704 31-12.514 61.684-15.189 91.26-7.975 0.33 2.491 0.11 5.07-0.73 7.546m-116.14-41.051c12.229-2.348 23.419-3.35 33.619-3.35 31.88 0 54.057 9.797 67.818 18.942-26.842-2.979-54.77 1.125-81.94 12.18-17.861 7.267-31.088 15.737-37.94 20.591-2.264-6.706-3.382-13.335-3.84-19.315-1.067-13.96 8.534-26.408 22.284-29.048m121.246 11.883c-12.85-11.291-41.321-30.233-87.628-30.233-11.676 0-23.938 1.217-36.446 3.619-21.264 4.082-36.058 23.395-34.411 44.924 1.379 18.038 7.459 34.301 17.583 47.032 13.858 17.426 34.863 28.426 62.435 32.692l0.217 0.034 0.218 0.028c0.573 0.071 2.702 0.304 5.996 0.304 13.912 0 60.877-4.644 81.136-64.418a31.607 31.607 0 0 0-9.1-33.982" fill="#342D1F" p-id="1100"></path><path d="M506 335.5c-58.172 0-105.5-52.71-105.5-117.5 0-64.79 47.328-117.5 105.5-117.5h26c58.173 0 105.5 52.71 105.5 117.5 0 64.79-47.327 117.5-105.5 117.5h-26z" fill="#FBA300" p-id="1101"></path><path d="M537.5 336.25c-58.172 0-105.5-52.71-105.5-117.5 0-64.79 47.328-117.5 105.5-117.5 58.173 0 105.5 52.71 105.5 117.5 0 64.79-47.327 117.5-105.5 117.5" fill="#FFD100" p-id="1102"></path><path d="M539.5 299.95c0-46.4-31.8-81.2-74.2-81.2 42.4 0 74.2-34.8 74.2-81.2 0 46.4 31.801 81.2 74.2 81.2-42.399 0-74.2 34.8-74.2 81.2m0-167.2c-42.458 0-77 38.58-77 86s34.542 86 77 86 77-38.58 77-86-34.542-86-77-86" fill="#FBA300" p-id="1103"></path><path d="M539.5 128.75c-21.812 0-42.267 9.481-57.594 26.698-15.093 16.954-23.406 39.435-23.406 63.302 0 23.867 8.313 46.348 23.406 63.302 15.327 17.217 35.782 26.698 57.594 26.698 21.813 0 42.268-9.481 57.595-26.698 15.093-16.954 23.405-39.435 23.405-63.302 0-23.867-8.312-46.348-23.405-63.302-15.327-17.217-35.782-26.698-57.595-26.698m0 8c40.317 0 73 36.713 73 82 0 45.288-32.683 82-73 82-40.316 0-73-36.712-73-82 0-45.287 32.684-82 73-82" fill="#FD9300" p-id="1104"></path><path d="M532 93c5.697 0 11.326 0.46 16.854 1.367 26.202 2.862 50.425 15.614 69.143 36.623 20.96 23.527 32.503 54.694 32.503 87.76s-11.543 64.233-32.503 87.76c-21.395 24.014-49.982 37.24-80.497 37.24-4.211 0-8.385-0.252-12.51-0.75H506c-30.514 0-59.101-13.226-80.496-37.24C404.544 282.233 393 251.066 393 218s11.544-64.233 32.504-87.76C446.899 106.226 475.486 93 506 93z m5.5 15.75c-54.124 0-98 49.249-98 110 0 56.391 37.804 102.872 86.518 109.253L532 328c54.124 0 98-49.249 98-110 0-55.148-36.156-100.818-83.314-108.773a88.474 88.474 0 0 0-9.186-0.477z m-59.953 3.96l-1.057 0.365C436.787 127.13 408 168.792 408 218c0 47.922 27.302 88.687 65.399 103.767-5.824-4.456-11.312-9.552-16.395-15.257-20.96-23.527-32.504-54.694-32.504-87.76s11.544-64.233 32.504-87.76c6.274-7.042 13.166-13.156 20.543-18.28z" fill="#342D1F" p-id="1105"></path></svg>